<svg width="61" height="50" viewBox="0 0 61 50" fill="none" xmlns="http://www.w3.org/2000/svg">
<g clip-path="url(#clip0)">
<path d="M20.3224 43.7852H5.8078C2.64775 43.7852 0.0859375 46.347 0.0859375 49.507H14.6006C17.7606 49.507 20.3224 46.9452 20.3224 43.7852Z" fill="#60D7FF"/>
<path d="M26.0139 32.8838H5.8078C2.64775 32.8838 0.0859375 35.4456 0.0859375 38.6057H20.2921C23.4521 38.6057 26.0139 36.0438 26.0139 32.8838Z" fill="#38A4FF"/>
<path d="M30.4407 27.7053H5.8078C2.64775 27.7053 0.0859375 25.1435 0.0859375 21.9834H24.7188C27.8788 21.9834 30.4407 24.5452 30.4407 27.7053Z" fill="#227DFF"/>
<path d="M55.1951 27.7053H30.4414C30.4414 24.5452 33.0032 21.9834 36.1633 21.9834H60.9163C60.9163 25.1435 58.3551 27.7053 55.1951 27.7053Z" fill="#227DFF"/>
<path d="M40.5586 43.7852H55.0732C58.2333 43.7852 60.7951 46.347 60.7951 49.507H46.2805C43.1204 49.507 40.5586 46.9452 40.5586 43.7852Z" fill="#60D7FF"/>
<path d="M34.8672 32.8838H55.0733C58.2334 32.8838 60.7952 35.4456 60.7952 38.6057H40.5891C37.429 38.6057 34.8672 36.0438 34.8672 32.8838Z" fill="#38A4FF"/>
<path d="M20.3224 5.72187H5.8078C2.64775 5.72187 0.0859375 3.16005 0.0859375 0H14.6006C17.7606 0 20.3224 2.56181 20.3224 5.72187Z" fill="#60D7FF"/>
<path d="M26.0139 16.6232H5.8078C2.64775 16.6232 0.0859375 14.0614 0.0859375 10.9014H20.2921C23.4521 10.9014 26.0139 13.4632 26.0139 16.6232Z" fill="#38A4FF"/>
<path d="M40.5586 5.72187H55.0732C58.2333 5.72187 60.7951 3.16005 60.7951 0H46.2805C43.1204 0 40.5586 2.56181 40.5586 5.72187Z" fill="#60D7FF"/>
<path d="M34.8672 16.6232H55.0733C58.2334 16.6232 60.7952 14.0614 60.7952 10.9014H40.5891C37.429 10.9014 34.8672 13.4632 34.8672 16.6232Z" fill="#38A4FF"/>
</g>
<defs>
<clipPath id="clip0">
<rect width="60.8296" height="49.5073" fill="white" transform="translate(0.0859375)"/>
</clipPath>
</defs>
</svg>
